<svg id="Capa_1" enable-background="new 0 0 100 100" height="100" viewBox="0 0 511.921 511.921" width="100" xmlns="http://www.w3.org/2000/svg"><g><g><g><g><g><path d="m179.094 458.834 10.628-55.299 66.239-24.677 66.238 24.677 10.628 55.299-76.866 17.292z" fill="#365e7d"/><path d="m50.523 396.973c136.958 9.766 273.916 9.766 410.875 0 17.727-1.264 32.032-14.889 34.192-32.529 11.824-96.563 11.824-193.127 0-289.69-2.16-17.64-16.465-31.265-34.192-32.529-136.959-9.766-273.917-9.766-410.875 0-17.727 1.265-32.032 14.89-34.192 32.53-11.824 96.563-11.824 193.126 0 289.69 2.16 17.64 16.465 31.264 34.192 32.528z" fill="#407093"/><path d="m59.351 397.584c-2.94-.2-5.88-.4-8.82-.61-17.73-1.27-32.04-14.89-34.2-32.53-11.82-96.569-11.82-193.128 0-289.697 2.16-17.64 16.47-31.259 34.2-32.529 2.94-.21 5.88-.41 8.82-.61-6.44 6.14-10.8 14.45-11.95 23.81-12.59 102.789-12.59 205.568 0 308.357 1.15 9.359 5.51 17.669 11.95 23.809z" fill="#365e7d"/><path d="m42.727 329.663c.826 8.684 7.854 15.468 16.559 16.039 65.366 4.291 131.443 6.467 196.675 6.467s131.309-2.176 196.675-6.467c8.705-.571 15.733-7.355 16.559-16.039 7.947-83.56 6.822-167.933-3.381-251.262-.414-3.381-3.168-6.011-6.549-6.252-67.452-4.81-135.853-7.248-203.304-7.248s-135.851 2.439-203.304 7.249c-3.381.241-6.135 2.871-6.549 6.252-10.203 83.329-11.328 167.701-3.381 251.261z" fill="#80b4fb"/><path d="m373.369 493.418h-234.816c-9.55 0-17.292-7.742-17.292-17.292 0-9.55 7.742-17.292 17.292-17.292h234.816c9.55 0 17.292 7.742 17.292 17.292 0 9.55-7.742 17.292-17.292 17.292z" fill="#407093"/><path d="m185.18 493.416h-46.63c-9.55 0-17.29-7.74-17.29-17.29 0-4.77 1.94-9.1 5.06-12.23 3.13-3.12 7.46-5.06 12.23-5.06h46.629c-4.78 0-9.1 1.94-12.23 5.06-3.13 3.13-5.06 7.46-5.06 12.23.001 9.55 7.741 17.29 17.291 17.29z" fill="#365e7d"/></g></g></g><path d="m358.118 118.121c-68.105-3.272-136.21-3.272-204.315 0-18.05.867-32.895 14.679-34.942 32.633-3.335 29.253-3.335 58.506 0 87.759 2.047 17.954 16.892 31.766 34.942 32.633 68.105 3.272 136.21 3.272 204.315 0 18.05-.867 32.895-14.679 34.942-32.633 3.335-29.253 3.335-58.506 0-87.759-2.047-17.955-16.892-31.766-34.942-32.633z" fill="#ffd064"/><path d="m159.561 271.402c-1.92-.08-3.84-.17-5.76-.26-18.05-.86-32.9-14.67-34.94-32.63-3.34-29.25-3.34-58.499 0-87.759 2.04-17.95 16.89-31.76 34.94-32.63 1.92-.09 3.84-.18 5.76-.26-10.59 6.09-18.13 16.94-19.59 29.75-3.57 31.35-3.57 62.7 0 94.049 1.46 12.81 9 23.65 19.59 29.74z" fill="#ffc250"/><path d="m428.008 252.138-53.524-14.338c-7.368-1.974-14.11 4.768-12.136 12.136l14.337 53.526c1.974 7.369 11.184 9.837 16.579 4.443l8.635-8.635 19.296 19.296c6.043 6.043 15.877 6.043 21.92 0s6.043-15.877 0-21.92l-19.296-19.296 8.633-8.633c5.393-5.394 2.925-14.604-4.444-16.579z" fill="#ececec"/><g fill="#f6ee6d"><path d="m108.929 103.165 1.462-1.462c5.158-5.158 5.441-13.429.648-18.928l-14.742-16.915c-5.281-6.058-14.588-6.377-20.271-.694l-3.633 3.634c-5.683 5.683-5.364 14.99.694 20.271l16.914 14.743c5.499 4.792 13.77 4.509 18.928-.649z"/><path d="m168.191 68.332 1.998-.535c7.046-1.888 11.427-8.909 10.026-16.068l-4.31-22.02c-1.544-7.887-9.445-12.817-17.208-10.737l-4.964 1.33c-7.763 2.08-12.14 10.3-9.534 17.902l7.277 21.225c2.365 6.901 9.669 10.791 16.715 8.903z"/><path d="m75.023 162.962.535-1.998c1.888-7.046-2.002-14.351-8.902-16.716l-21.225-7.277c-7.602-2.606-15.822 1.771-17.902 9.534l-1.33 4.964c-2.08 7.763 2.85 15.664 10.737 17.208l22.02 4.31c7.158 1.402 14.179-2.979 16.067-10.025z"/></g></g><g><path d="m503.035 73.845c-2.587-21.135-19.872-37.579-41.104-39.1-8.542-.605-17.521-1.206-26.689-1.784-4.116-.252-7.696 2.879-7.957 7.014-.26 4.134 2.88 7.696 7.014 7.957 9.129.575 18.069 1.172 26.566 1.775 14.089 1.009 25.563 11.927 27.281 25.961 11.701 95.502 11.701 192.354 0 287.867-1.718 14.036-13.19 24.949-27.279 25.95-135.966 9.699-273.847 9.699-409.814 0-14.087-1.001-25.559-11.915-27.277-25.951-11.701-95.512-11.701-192.364 0-287.867 1.718-14.033 13.192-24.951 27.279-25.96 29.033-2.071 58.427-3.698 87.487-4.876l5.071 14.79c-13.559.534-27.333 1.177-41.138 1.912l-.523-.6c-3.877-4.449-9.483-7.116-15.381-7.318-5.892-.193-11.674 2.075-15.847 6.248l-3.634 3.634c-.051.051-.099.106-.15.158-4.659.303-9.536.637-14.817 1.016-6.955.494-12.613 5.889-13.453 12.817-2.136 17.392-3.871 35.058-5.212 52.609-.876.327-1.741.69-2.574 1.133-5.208 2.774-9.072 7.634-10.599 13.334l-1.33 4.964c-1.527 5.7-.611 11.841 2.512 16.848 2.262 3.624 5.574 6.454 9.423 8.179-1.998 51.78-.538 104.168 4.368 155.818 1.185 12.401 11.083 21.995 23.534 22.81 65.583 4.304 131.92 6.486 197.169 6.486s131.587-2.182 197.168-6.486c12.453-.815 22.351-10.409 23.536-22.814 7.991-84.099 6.843-169.179-3.411-252.87-.841-6.94-6.5-12.335-13.452-12.828-67.646-4.823-136.228-7.269-203.841-7.269-22.541 0-45.47.295-68.352.845.478-2.569.495-5.261-.033-7.96l-1.375-7.024c72.562-1.758 146.022-.756 218.503 3.003.132.007.264.01.395.01 3.964 0 7.276-3.107 7.483-7.112.215-4.136-2.965-7.664-7.102-7.878-73.711-3.822-148.431-4.808-222.202-2.955l-.012-.063c-1.134-5.791-4.655-10.904-9.662-14.028s-11.148-4.039-16.848-2.512l-4.964 1.33c-5.7 1.527-10.561 5.391-13.334 10.599-1.051 1.974-1.771 4.088-2.161 6.256-28.68 1.18-57.668 2.789-86.312 4.833-21.226 1.52-38.511 17.964-41.099 39.098-11.849 96.712-11.849 194.792 0 291.514 2.588 21.141 19.875 37.581 41.101 39.089 43.421 3.098 87.026 5.207 130.704 6.336l-7.794 40.553h-34.347c-6.611 0-12.835 2.574-17.542 7.266-4.674 4.689-7.248 10.913-7.248 17.524 0 13.669 11.121 24.79 24.79 24.79h14.67c4.142 0 7.5-3.358 7.5-7.5s-3.358-7.5-7.5-7.5h-14.67c-5.398 0-9.79-4.392-9.79-9.79 0-2.614 1.02-5.077 2.854-6.918 1.858-1.852 4.321-2.872 6.936-2.872h234.82c5.398 0 9.79 4.392 9.79 9.79 0 2.614-1.02 5.077-2.854 6.918-1.858 1.852-4.321 2.872-6.936 2.872h-190.15c-4.142 0-7.5 3.358-7.5 7.5s3.358 7.5 7.5 7.5h190.15c6.611 0 12.835-2.574 17.542-7.266 4.674-4.689 7.248-10.913 7.248-17.524 0-13.669-11.121-24.79-24.79-24.79h-34.347l-7.794-40.554c43.681-1.13 87.294-3.239 130.703-6.335 21.228-1.508 38.514-17.948 41.103-39.088 11.849-96.723 11.849-194.802 0-291.514zm-425.339.258 3.634-3.634c1.209-1.209 2.799-1.867 4.5-1.867.075 0 .151.001.227.004 1.785.062 3.414.836 4.587 2.183l14.743 16.914c2.193 2.517 2.062 6.336-.297 8.697l-1.463 1.463c-2.361 2.36-6.181 2.491-8.696.298l-16.916-14.744c-1.346-1.173-2.121-2.803-2.183-4.587-.061-1.785.601-3.464 1.864-4.727zm-39.319 87.214c-1.753-.343-3.239-1.366-4.184-2.881-.945-1.516-1.211-3.3-.749-5.025l1.33-4.964c.462-1.725 1.585-3.137 3.161-3.977.94-.5 1.958-.753 2.986-.753.696 0 1.396.116 2.078.35l21.225 7.277c3.158 1.083 4.954 4.456 4.091 7.68l-.536 1.998v.001c-.863 3.224-4.105 5.249-7.382 4.606zm137.704-87.773c26.69-.754 53.554-1.142 79.879-1.142 67.148 0 135.252 2.424 202.439 7.207 10.089 82.528 11.211 166.421 3.333 249.337-.481 5.039-4.512 8.937-9.585 9.269-65.257 4.283-131.264 6.454-196.187 6.454s-130.93-2.171-196.188-6.454c-5.072-.332-9.103-4.23-9.583-9.265-4.75-50.016-6.233-100.736-4.426-150.903l11.751 2.3c1.369.268 2.735.397 4.085.397 9.484 0 18.132-6.378 20.668-15.842l.536-1.998c2.896-10.811-3.128-22.122-13.715-25.752l-20.586-7.058c1.304-16.844 2.973-33.788 5.019-50.486 2.533-.182 4.952-.351 7.318-.513.002.082-.001.164.002.247.202 5.897 2.87 11.504 7.318 15.381l16.915 14.744c4.021 3.503 9.032 5.238 14.035 5.238 5.496 0 10.981-2.095 15.124-6.237l1.463-1.463c7.914-7.914 8.353-20.721.999-29.159l-1.692-1.941c13.616-.671 27.141-1.243 40.408-1.713 2.849 1.361 5.995 2.11 9.227 2.11 1.819 0 3.665-.235 5.496-.725h.001l1.997-.535c1.386-.372 2.705-.88 3.949-1.498zm-24.385-42.836c.84-1.576 2.252-2.699 3.977-3.161l4.964-1.33c.554-.148 1.113-.222 1.668-.222 1.175 0 2.328.329 3.357.971 1.515.945 2.538 2.431 2.881 4.184l4.311 22.02c.641 3.276-1.382 6.519-4.607 7.383l-1.998.536c-3.225.86-6.597-.934-7.68-4.091l-7.277-21.224c-.578-1.691-.435-3.49.404-5.066zm172.053 420.629h-135.577l7.726-40.202c20.012.413 40.036.625 60.062.625 20.023 0 40.048-.213 60.062-.626z"/><path d="m248.461 378.858v.5c0 4.142 3.358 7.5 7.5 7.5s7.5-3.358 7.5-7.5v-.5c0-4.142-3.358-7.5-7.5-7.5s-7.5 3.358-7.5 7.5z"/><path d="m111.41 149.901c-3.389 29.686-3.389 59.785 0 89.46 2.478 21.713 20.156 38.229 42.03 39.271 34.014 1.638 68.265 2.457 102.519 2.457s68.51-.819 102.526-2.457c1.238-.061 2.467-.19 3.69-.352l7.265 27.122c1.628 6.08 6.23 10.682 12.31 12.311 6.081 1.629 12.366-.055 16.816-4.505l3.332-3.332 13.993 13.993c4.339 4.339 10.115 6.729 16.263 6.729s11.924-2.39 16.263-6.729 6.729-10.115 6.729-16.263-2.39-11.924-6.729-16.263l-13.993-13.993 3.33-3.33c4.451-4.45 6.135-10.737 4.506-16.816-1.629-6.08-6.231-10.682-12.311-12.311l-29.193-7.821c3.132-28.934 3.057-58.248-.245-87.172-2.478-21.7-20.154-38.215-42.031-39.27-68.027-3.267-137.011-3.267-205.04 0-21.875 1.055-39.552 17.57-42.03 39.271zm316.361 111.186c.134.502.232 1.471-.624 2.327l-8.633 8.633c-2.929 2.929-2.929 7.678 0 10.606l19.296 19.296c3.119 3.119 3.119 8.194 0 11.313s-8.194 3.119-11.313 0l-19.296-19.296c-1.464-1.464-3.384-2.197-5.303-2.197s-3.839.732-5.303 2.197l-8.635 8.635c-.856.856-1.827.758-2.327.623-.502-.134-1.391-.535-1.704-1.703l-14.337-53.526c-.313-1.169.256-1.959.624-2.327s1.161-.936 2.327-.624l53.524 14.339c1.17.313 1.569 1.202 1.704 1.704zm-70.012-135.474c14.497.699 26.209 11.629 27.849 25.989 3.088 27.055 3.246 54.465.483 81.542l-9.666-2.589c-6.077-1.628-12.365.057-16.815 4.506-4.45 4.45-6.135 10.736-4.506 16.814l3.143 11.734c-.163.011-.324.032-.487.04-67.548 3.253-136.049 3.252-203.601 0-14.495-.69-26.205-11.62-27.845-25.989-3.26-28.546-3.26-57.5 0-86.057 1.64-14.361 13.352-25.291 27.848-25.99 67.548-3.243 136.05-3.243 203.597 0z"/><path d="m160.455 236.816h.033c.001 0 18.528-.083 23.635-.083 14.431 0 26.171-11.74 26.171-26.171 0-8.606-4.177-16.254-10.609-21.027 2.753-3.844 4.38-8.546 4.38-13.625 0-12.937-10.524-23.461-23.461-23.461h-20.149c-4.142 0-7.5 3.358-7.5 7.5v31.941.052 37.373c0 1.995.795 3.908 2.208 5.315 1.407 1.4 3.309 2.186 5.292 2.186zm23.668-15.083c-2.958 0-10.404.027-16.168.051v-22.373c1.749-.007 3.621-.014 5.405-.021h10.763c6.16 0 11.171 5.011 11.171 11.171 0 6.161-5.011 11.172-11.171 11.172zm-3.519-54.283c4.666 0 8.461 3.795 8.461 8.461s-3.795 8.461-8.461 8.461c-1.479 0-4.261.008-7.297.019h-5.352v-16.941z"/><path d="m321.986 196.107-.081 33.19c-.01 4.142 3.339 7.508 7.481 7.519h.019c4.133 0 7.489-3.346 7.5-7.481l.081-33.216 20.766-31.9c2.26-3.472 1.277-8.118-2.194-10.377s-8.118-1.277-10.377 2.194l-15.699 24.117-15.868-24.301c-2.264-3.469-6.912-4.443-10.38-2.179-3.468 2.265-4.444 6.912-2.179 10.38z"/><path d="m238.24 231.979c5.01 3.201 10.667 4.828 16.813 4.836h.052c5.305 0 10.281-1.152 14.792-3.423 14.215-7.159 17.199-17.96 17.199-25.761v-47.681c0-4.142-3.358-7.5-7.5-7.5s-7.5 3.358-7.5 7.5v47.681c0 3.659-1.017 8.371-8.946 12.364-2.399 1.208-5.105 1.82-8.045 1.82-.01 0-.02 0-.03 0-3.292-.004-6.156-.815-8.758-2.477-5.27-3.367-7.42-6.745-7.42-11.657v-47.731c0-4.142-3.358-7.5-7.5-7.5s-7.5 3.358-7.5 7.5v47.731c-.001 10.183 4.691 18.131 14.343 24.298z"/></g></g></svg>